- 
http://www.torrentkit.com  

who care what we share! support us by seeding back,
and don't forget to visit www.torrentkit.com
-[img]http://img228.imageshack.us/img228/1689/postera.jpg[/img]

[color=blue][size=5][b]Sacrifice 2011 DVDSCR-Blurred XVID AC3 Hive-CM8[/b][/size][/color]



[b]Thx Hive

CM8 Doing It Right The First Time :D

Source:
Sacrifice DVDSCR AC3 XViD  IMAGiNE
thx

Encode: the screener was already done nice, just the constant "for screening only" msg needs to be blurred. Tried it with one big border wasnt nice, tried it with 3-was better but still not nice. Finally 12 adjusted borders look ok to me. also played a bit with the video itself on colour and chroma.

Video: 720x384 @bitrate 1800 2pass
Audio: 1:1 English AC3 2.0 Stereo
Sample: yes included[/b]
 
http://www.imdb.com/title/tt1630564/


General
Complete name                    : Sacrifice.2011.DVDSCR-Blurred.XVID.AC3.Hive-CM8.avi
Format                           : AVI
Format/Info                      : Audio Video Interleave
File size                        : 1.39 GiB
Duration                         : 1h 39mn
Overall bit rate                 : 2 001 Kbps
Writing application              : Nandub v1.0rc2
Writing library                  : Nandub build 1853/release

Video
ID                               : 0
Format                           : MPEG-4 Visual
Format profile                   : Advanced Simple@L5
Format settings, BVOP            : Yes
Format settings, QPel            : Yes
Format settings, GMC             : No warppoints
Format settings, Matrix          : Default (H.263)
Muxing mode                      : Packed bitstream
Codec ID                         : XVID
Codec ID/Hint                    : XviD
Duration                         : 1h 39mn
Bit rate                         : 1 800 Kbps
Width                            : 720 pixels
Height                           : 384 pixels
Display aspect ratio             : 1.875
Frame rate                       : 23.976 fps
Color space                      : YUV
Chroma subsampling               : 4:2:0
Bit depth                        : 8 bits
Scan type                        : Progressive
Bits/(Pixel*Frame)               : 0.272
Stream size                      : 1.25 GiB (90%)
Writing library                  : XviD 1.2.1 (UTC 2008-12-04)

Audio
ID                               : 1
Format                           : AC-3
Format/Info                      : Audio Coding 3
Mode extension                   : CM (complete main)
Codec ID                         : 2000
Duration                         : 1h 39mn
Bit rate mode                    : Constant
Bit rate                         : 192 Kbps
Channel(s)                       : 2 channels
Channel positions                : Front: L R
Sampling rate                    : 48.0 KHz
Bit depth                        : 16 bits
Stream size                      : 137 MiB (10%)
Alignment                        : Split accross interleaves
Interleave, duration             : 42 ms (1.00 video frame)
Interleave, preload duration     : 500 ms



Cuba Gooding Jr.   ...  John Hebron
Christian Slater  ... Father Porter
Devon Bostick  	... Mike
Kim Coates 	... Arment
Lara Daans  	... Jade
Zion Lee  	... Rook 


A tough undercover cop inadvertently gets involved in a dangerous heroin ring when a young 
defector of the drug trade leaves his five year-old sister in his care. 



[img]http://img834.imageshack.us/img834/9673/sasasasasasasasasa.png[/img]
[img]http://img513.imageshack.us/img513/9192/41038279.png[/img]
[img]http://img141.imageshack.us/img141/566/sasawf.png[/img]
[img]http://img143.imageshack.us/img143/8605/sasasae.png[/img]
[img]http://img23.imageshack.us/img23/2103/sasasasap.png[/img]
[img]http://img171.imageshack.us/img171/4357/sasasasasa.png[/img]
[img]http://img207.imageshack.us/img207/5758/sasasasasasa.png[/img]
[img]http://img34.imageshack.us/img34/3299/sasasasasasasa.png[/img]
[img]http://img842.imageshack.us/img842/7190/sasasasasasasasa.png[/img]




Greetz

iNK,LUSi,,MAGNET,CLASSiFiED,THC,LEGi0N,T0XiC,IMAGiNE,ViSiON,WBZ,FLAWL3SS,NOVA
Vik,Rapeseed,D2U,SAFC,goldadvance,MEMORY100,KaN1vE,Unevano,Pinnz,Wayne,Mr Hive
and all P2P groups 
Great Work Guys :D